<?xml version="1.0" standalone="no"?>
<!DOCTYPE svg PUBLIC "-//W3C//DTD SVG 20010904//EN"
 "http://www.w3.org/TR/2001/REC-SVG-20010904/DTD/svg10.dtd">
<svg version="1.0" xmlns="http://www.w3.org/2000/svg"
 width="701.000000pt" height="700.000000pt" viewBox="0 0 701.000000 700.000000"
 preserveAspectRatio="xMidYMid meet">

<g transform="translate(0.000000,700.000000) scale(0.100000,-0.100000)"
fill="#000000" stroke="none">
<path d="M1016 6929 c-232 -34 -455 -148 -626 -319 -148 -147 -240 -309 -297
-520 l-28 -105 0 -740 0 -740 23 -43 c35 -65 85 -115 146 -146 46 -24 68 -28
131 -28 63 0 85 4 131 28 64 32 117 87 148 153 21 45 21 58 26 751 5 632 7
710 23 756 53 158 173 278 331 331 46 16 124 18 756 23 l705 5 57 28 c228 112
226 426 -4 549 l-43 23 -710 1 c-390 1 -736 -2 -769 -7z"/>
<path d="M4509 6926 c-90 -32 -145 -83 -185 -170 -69 -150 0 -328 155 -400 45
-21 58 -21 751 -26 632 -5 710 -7 756 -23 159 -53 278 -172 331 -329 16 -48
18 -119 23 -758 5 -693 5 -706 26 -751 74 -160 259 -229 409 -154 62 32 112
82 147 147 l23 43 0 740 0 740 -28 105 c-56 208 -151 374 -297 520 -145 146
-306 238 -515 296 l-100 28 -730 3 c-584 2 -737 0 -766 -11z"/>
<path d="M2075 5342 c-61 -29 -120 -85 -152 -144 -16 -30 -18 -63 -18 -333 l0
-300 27 -47 c15 -25 47 -63 71 -85 144 -126 364 -85 465 85 l27 47 3 278 c4
318 0 343 -71 423 -90 102 -231 133 -352 76z"/>
<path d="M4685 5342 c-61 -29 -120 -85 -152 -144 -16 -30 -18 -63 -18 -333 l0
-300 27 -47 c15 -25 47 -63 71 -85 144 -126 364 -85 465 85 l27 47 0 300 c0
270 -2 303 -18 333 -57 104 -166 172 -277 172 -51 0 -78 -6 -125 -28z"/>
<path d="M3453 4690 c-24 -5 -63 -21 -87 -35 -89 -52 -97 -65 -321 -560 -13
-27 -54 -120 -93 -205 -98 -216 -108 -276 -71 -410 25 -91 63 -154 134 -218
111 -102 205 -125 490 -120 l200 3 67 33 c115 56 172 147 172 272 0 84 -19
135 -74 202 -44 53 -138 96 -227 104 -40 4 -73 9 -73 11 0 2 55 122 122 266
l122 262 0 90 c1 107 -21 161 -92 227 -75 69 -174 98 -269 78z"/>
<path d="M257 2680 c-71 -27 -128 -79 -162 -146 l-30 -59 -3 -685 c-3 -728 -1
-782 44 -936 54 -185 142 -333 283 -475 133 -133 248 -206 424 -269 162 -58
192 -60 951 -60 785 0 758 -2 845 76 106 95 133 229 73 358 -33 70 -103 135
-170 158 -27 9 -223 13 -747 18 -648 5 -714 7 -755 23 -115 46 -206 121 -267
220 -70 115 -67 77 -73 862 -5 707 -5 710 -27 758 -66 142 -242 213 -386 157z"/>
<path d="M6533 2679 c-64 -25 -136 -93 -166 -156 -22 -48 -22 -51 -27 -758 -6
-785 -3 -747 -73 -862 -65 -106 -168 -187 -286 -223 -60 -19 -95 -20 -721 -20
-391 0 -678 -4 -709 -10 -108 -20 -183 -79 -228 -177 -55 -120 -24 -255 78
-347 87 -78 60 -76 845 -76 755 0 776 1 944 58 173 59 294 135 431 272 141
140 229 288 283 474 45 154 47 208 44 936 l-3 685 -30 59 c-70 138 -236 201
-382 145z"/>
<path d="M2300 2634 c-25 -9 -68 -34 -96 -55 -111 -85 -146 -235 -86 -364 56
-118 276 -303 478 -404 178 -89 401 -156 595 -181 118 -14 426 -12 539 4 397
58 740 223 959 462 90 99 115 151 115 244 1 94 -32 169 -101 229 -134 119
-319 103 -442 -39 -243 -279 -811 -380 -1261 -226 -165 57 -233 99 -356 217
-49 48 -100 87 -130 100 -65 28 -156 34 -214 13z"/>
</g>
</svg>
