<?xml version="1.0" encoding="UTF-8" standalone="no"?>
<svg
   height="40"
   viewBox="0 -960 800 800"
   width="40"
   fill="#ffffff"
   version="1.1"
   id="svg4"
   sodipodi:docname="error.svg"
   inkscape:version="1.1.1 (3bf5ae0d25, 2021-09-20)"
   xmlns:inkscape="http://www.inkscape.org/namespaces/inkscape"
   xmlns:sodipodi="http://sodipodi.sourceforge.net/DTD/sodipodi-0.dtd"
   xmlns="http://www.w3.org/2000/svg"
   xmlns:svg="http://www.w3.org/2000/svg">
  <defs
     id="defs8" />
  <sodipodi:namedview
     id="namedview6"
     pagecolor="#ffffff"
     bordercolor="#666666"
     borderopacity="1.0"
     inkscape:pageshadow="2"
     inkscape:pageopacity="0.0"
     inkscape:pagecheckerboard="0"
     showgrid="false"
     lock-margins="true"
     fit-margin-top="0"
     fit-margin-left="0"
     fit-margin-right="0"
     fit-margin-bottom="0"
     inkscape:zoom="5.4166667"
     inkscape:cx="11.538461"
     inkscape:cy="22.246154"
     inkscape:window-width="1366"
     inkscape:window-height="705"
     inkscape:window-x="-8"
     inkscape:window-y="-8"
     inkscape:window-maximized="1"
     inkscape:current-layer="svg4" />
  <path
     d="m 399.98,-360 q 14.02,0 23.52,-9.48 9.5,-9.48 9.5,-23.5 0,-14.02 -9.48,-23.52 -9.48,-9.5 -23.5,-9.5 -14.02,0 -23.52,9.48 -9.5,9.48 -9.5,23.5 0,14.02 9.48,23.52 9.48,9.5 23.5,9.5 z m 3.2,-153 q 12.82,0 21.32,-8.63 8.5,-8.62 8.5,-21.37 v -193 q 0,-12.75 -8.68,-21.38 -8.67,-8.62 -21.5,-8.62 -12.82,0 -21.32,8.62 -8.5,8.63 -8.5,21.38 v 193 q 0,12.75 8.68,21.37 8.67,8.63 21.5,8.63 z m -2.91,353 q -82.74,0 -155.5,-31.5 Q 172,-223 117.5,-277.5 63,-332 31.5,-404.84 0,-477.68 0,-560.5 0,-643.32 31.5,-716.16 63,-789 117.5,-843 172,-897 244.84,-928.5 317.68,-960 400.5,-960 q 82.82,0 155.66,31.5 Q 629,-897 683,-843 q 54,54 85.5,127 31.5,73 31.5,155.73 0,82.74 -31.5,155.5 -31.5,72.77 -85.5,127.09 -54,54.31 -127,86 Q 483,-160 400.27,-160 Z m 0.23,-60 q 141.5,0 240.5,-99.5 99,-99.5 99,-241 Q 740,-702 641.19,-801 542.38,-900 400,-900 259,-900 159.5,-801.19 60,-702.38 60,-560 q 0,141 99.5,240.5 99.5,99.5 241,99.5 z M 400,-560 Z"
     id="path2" />
</svg>
